# xmcd
#
# Track frame offsets:
#	150
#	18466
#	32645
#	44762
#	59698
#	70436
#	86771
#	99712
#	120939
#	135584
#	151527
#	170421
#	186289
#	202075
#	220031
#
# Disc length: 3172 seconds
#
# Revision: 0
# Processed by: cddbd v1.5.2PL0 Copyright (c) Steve Scherf et al.
# Submitted via: audiograbber 1.80
#
DISCID=d60c620f
DTITLE=Bo Porter - Live at the Saxon Pub
DYEAR=1900
DGENRE=
TTITLE0=Honky Tonk
TTITLE1=On A Mountain Stands My Love
TTITLE2=I Still Miss Someone
TTITLE3=Rattle Your Brain
TTITLE4=Ruby Ann
TTITLE5=Big Legged Woman
TTITLE6=Heartache For A Dime
TTITLE7=Milk Cow Blues
TTITLE8=Your Gonna Be Lonesome
TTITLE9=Work With Me Baby
TTITLE10=Must Be Jelly
TTITLE11=Donna On My Mind
TTITLE12=I Didn't See Than Comin'
TTITLE13=Beginning Of The End
TTITLE14=Free Born Man
EXTD=
EXTT0=
EXTT1=
EXTT2=
EXTT3=
EXTT4=
EXTT5=
EXTT6=
EXTT7=
EXTT8=
EXTT9=
EXTT10=
EXTT11=
EXTT12=
EXTT13=
EXTT14=
PLAYORDER=
